{"title":"Crickets Greatest Wonders And Blunders 2010 by RoYStaR","uid":6889103,"size":740621327,"categoryP":"video","categoryS":"tv_shows","magnet":"?xt=urn:btih:fbc7e496f26df14edf3d34597fd4c700becdf79a&amp;dn=Crickets+Greatest+Wonders+And+Blunders+2010+by+RoYStaR&amp;tr=udp%3A%2F%2Ftracker.openbittorrent.com%3A80&amp;tr=udp%3A%2F%2Fopen.demonii.com%3A1337&amp;tr=udp%3A%2F%2Ftracker.coppersurfer.tk%3A6969&amp;tr=udp%3A%2F%2Fexodus.desync.com%3A6969","seeders":0,"leechers":0,"uploader":"roystarid","files":7,"time":1323941325,"description":"\n\nComplete name                    : D:\\TOORENT FOR UPLOAD\\Crickets Greatest Wonders And Blunders 2010 by RoYStaR\\Crickets Greatest Wonders And Blunders 2010 by RoYStaR.avi\nFormat                           : AVI\nFormat/Info                      : Audio Video Interleave\nFile size                        : 699 MiB\nDuration                         : 1h 29mn\nOverall bit rate                 : 1 097 Kbps\n\nVideo\nFormat                           : MPEG-4 Visual\nDuration                         : 1h 29mn\nBit rate                         : 939 Kbps\nWidth                            : 576 pixels\nHeight                           : 320 pixels\nDisplay aspect ratio             : 16:9\nFrame rate                       : 25.000 fps\nColor space                      : YUV\nChroma subsampling               : 4:2:0\nBit depth                        : 8 bits\nScan type                        : Progressive\nCompression mode                 : Lossy\nBits/(Pixel*Frame)               : 0.204\nStream size                      : 599 MiB (86%)\n\nAudio\nID                               : 1\nFormat                           : MPEG Audio\nFormat version                   : Version 1\nFormat profile                   : Layer 3\nCodec ID                         : 55\nCodec ID/Hint                    : MP3\nDuration                         : 1h 29mn\nBit rate mode                    : Variable\nBit rate                         : 145 Kbps\nChannel(s)                       : 2 channels\nSampling rate                    : 48.0 KHz\nCompression mode                 : Lossy\nStream size                      : 92.4 MiB (13%)\n","torrent":{"xt":"urn:btih:fbc7e496f26df14edf3d34597fd4c700becdf79a","amp;dn":"Crickets+Greatest+Wonders+And+Blunders+2010+by+RoYStaR","amp;tr":["udp%3A%2F%2Ftracker.openbittorrent.com%3A80","udp%3A%2F%2Fopen.demonii.com%3A1337","udp%3A%2F%2Ftracker.coppersurfer.tk%3A6969","udp%3A%2F%2Fexodus.desync.com%3A6969"],"infoHash":"fbc7e496f26df14edf3d34597fd4c700becdf79a","infoHashBuffer":{"type":"Buffer","data":[251,199,228,150,242,109,241,78,223,61,52,89,127,212,199,0,190,205,247,154]},"announce":[],"urlList":[]}}